Coordinates
version=1
nRows=6
nColumns=36
inDegrees=yes

Units are S.I. units (second, meters, Newtons, ...)
If the header above contains a line with 'inDegrees', this indicates whether rotational values are in degrees (yes) or radians (no).

endheader
time	pelvis_tilt	pelvis_list	pelvis_rotation	pelvis_tx	pelvis_ty	pelvis_tz	hip_flexion_r	hip_adduction_r	hip_rotation_r	knee_angle_r	knee_angle_r_beta	ankle_angle_r	subtalar_angle_r	mtp_angle_r	hip_flexion_l	hip_adduction_l	hip_rotation_l	knee_angle_l	knee_angle_l_beta	ankle_angle_l	subtalar_angle_l	mtp_angle_l	lumbar_extension	lumbar_bending	lumbar_rotation	arm_flex_r	arm_add_r	arm_rot_r	elbow_flex_r	pro_sup_r	arm_flex_l	arm_add_l	arm_rot_l	elbow_flex_l	pro_sup_l
      0.00000000	     -1.25958809	     -0.47218547	     -0.41800258	      0.06806792	      1.17434711	      0.06067242	      4.10784434	     -0.04823026	      0.76043890	      4.39602667	      0.07672514	      7.05793371	     -9.19154438	     -6.27837972	      2.73925330	     -1.72692909	      3.54202818	      3.07006483	      0.05358274	     10.80652732	     -2.12888994	     -6.27837972	     -0.73410410	      0.71477567	     -4.71393919	      2.52423196	     -4.64711425	     20.25564036	     22.99906252	     72.39131755	     -0.39476004	     -4.91964262	     15.97799349	     25.61162841	     70.18696748
      0.01666670	     -1.49690048	     -0.09383870	     -0.10934119	      0.06893665	      1.17231539	      0.06054909	      4.26809057	     -0.12996617	      1.72504236	      4.23643956	      0.07393982	     10.39725241	     -8.62121711	     -6.46593041	      3.04120399	     -1.07608703	      4.85893400	      2.76814372	      0.04831322	     10.71265965	     -3.45088495	     -6.46593041	      0.45791463	      0.50857513	     -4.82361704	      2.18218271	     -4.33451012	     18.90266495	     22.81398308	     71.58682342	     -0.49402580	     -4.76739661	     15.29532776	     25.46228633	     69.63518884
      0.03333330	     -2.39084296	      0.66980305	     -0.36466667	      0.06998731	      1.17167281	      0.06203429	      4.81843001	     -0.78290274	      1.18211782	      3.43262783	      0.05991066	     10.67327229	     -7.77107939	     -6.92796710	      3.94589351	     -0.25627689	      4.69367602	      2.59324404	      0.04526065	     10.63542063	     -3.30957229	     -6.92796710	      1.82171176	     -0.44678791	     -3.74202950	      0.69690723	     -3.12492370	      8.80250120	     24.25515394	     81.36754428	     -0.29602029	     -4.59248639	     12.94144484	     24.59535464	     76.78025687
      0.05000000	     -1.99831219	      0.95201482	     -0.51314843	      0.06983246	      1.17381551	      0.06186352	      4.13732692	     -1.15716792	      1.19774598	      3.14448783	      0.05488167	     10.68230361	     -7.55698672	     -7.02912824	      3.21880648	      0.07140919	      4.99374987	      2.06674911	      0.03607158	     10.59336285	     -3.30592157	     -7.02912824	      1.52407641	     -0.70530769	     -3.60757489	      0.65486214	     -2.85328878	      8.00099119	     24.42360186	     79.55735841	     -0.52961743	     -4.39110222	     11.93929291	     24.54531418	     74.80994975
      0.06666670	     -1.84409971	      1.14112814	     -0.52881768	      0.06984340	      1.17414987	      0.06344008	      3.78280639	     -1.30614801	      1.16918471	      2.78474263	      0.04860293	     10.55082499	     -7.27258430	     -7.09619138	      2.87877842	      0.22292498	      5.42022924	      1.82478557	      0.03184852	     10.32817301	     -3.67132685	     -7.09619138	      1.45700194	     -0.91409559	     -3.48558988	      0.54427582	     -2.56775403	      7.20599876	     24.61024573	     78.62048751	     -0.71005963	     -4.26244170	     11.02067890	     24.59105436	     73.69317451
      0.08333330	     -1.86992886	      1.24101545	     -0.58698813	      0.06986451	      1.17267548	      0.06344438	      3.70240888	     -1.34566792	      1.42923083	      2.59777321	      0.04533970	     10.14354623	     -7.59472343	     -7.21744340	      2.86677468	      0.30946042	      5.77588231	      1.78494028	      0.03115308	      9.99102425	     -4.41798267	     -7.21744340	      1.69373542	     -0.97680166	     -3.37719425	      0.58062866	     -2.36795241	      6.15060487	     24.35935974	     82.97938989	     -0.86218936	     -3.84626384	      8.65891856	     24.39473697	     74.74310606
